<svg xmlns="http://www.w3.org/2000/svg" version="1.1" xmlns:xlink="http://www.w3.org/1999/xlink" xmlns:svgjs="http://svgjs.com/svgjs" width="1000" height="1000"><rect width="1000" height="1000" rx="250" ry="250" fill="#ffffff"></rect><g transform="matrix(16.666666666666668,0,0,16.666666666666668,249.98844695091245,100.00006139775115)"><svg xmlns="http://www.w3.org/2000/svg" version="1.1" xmlns:xlink="http://www.w3.org/1999/xlink" xmlns:svgjs="http://svgjs.com/svgjs" width="30" height="48"><svg width="30" height="48" viewBox="0 0 30 48" fill="none" xmlns="http://www.w3.org/2000/svg">
<path d="M6.20631 35.2742C6.85593 35.2742 7.50554 35.2858 8.15515 35.2626C8.51476 35.251 8.65396 35.367 8.67716 35.7382C8.92077 39.4734 11.5772 42.3851 15.2893 42.9999C19.7206 43.7423 24.0127 40.3203 24.2563 35.8542C24.2795 35.3786 24.4419 35.2394 24.8943 35.251C26.1703 35.2742 27.458 35.2626 28.734 35.2626C29.0472 35.2626 29.198 35.3438 29.1864 35.7034C29.0124 41.3527 25.0219 46.2828 19.5234 47.6284C12.018 49.4613 4.65188 44.3108 3.80506 36.643C3.77026 36.3182 3.78186 35.9818 3.74706 35.6454C3.72386 35.367 3.83986 35.2626 4.10667 35.2742C4.82588 35.2742 5.5219 35.2742 6.20631 35.2742Z" fill="#EE2A7B"></path>
<path d="M13.8514 10.6008C14.0486 9.30162 14.1994 8.06039 14.4198 6.84236C14.6518 5.57794 14.8606 4.30191 15.255 3.07228C15.7191 1.58745 16.7747 0.601434 18.3059 0.149024C19.4775 -0.187383 20.5216 0.0446227 21.4032 0.85664C22.8764 2.23707 23.3984 3.95391 22.8764 5.90275C22.0992 8.86081 20.1155 10.8444 17.4359 12.1553C16.7051 12.5149 15.8583 12.6425 15.0578 12.8861C14.8838 12.9441 14.6982 13.0253 14.5706 13.1529C13.6542 14.1041 12.3898 14.3361 11.2762 13.6633C10.9862 13.4893 10.8122 13.5241 10.5453 13.6865C8.88651 14.7421 7.11167 15.4729 5.12803 15.3917C4.26961 15.3569 3.34159 15.1365 2.57598 14.7537C0.835938 13.8837 0.348728 12.0045 1.27675 10.2876C2.19317 8.5708 4.23481 7.71238 6.17205 8.3272C6.91447 8.5592 7.61048 8.98841 8.2949 9.38282C8.82851 9.69603 9.29252 10.102 9.80293 10.45C10.3713 10.8445 10.905 11.1229 11.6358 10.6124C12.2274 10.1948 13.0162 10.3224 13.8514 10.6008ZM14.327 12.1553C16.2295 11.6565 17.8303 10.9605 19.0599 9.60322C20.4172 8.09519 20.5332 5.79834 19.3615 4.15111C18.9207 3.5363 18.4335 3.46669 17.8535 3.9655C17.5983 4.18591 17.3315 4.42951 17.2039 4.73112C16.7399 5.72874 16.2411 6.72636 15.9395 7.78198C15.5334 9.23201 15.255 10.7168 14.327 12.1553ZM9.66372 13.2689C8.89811 13.0021 8.13249 12.7933 7.43648 12.4569C6.61286 12.0625 5.88205 11.4941 5.04683 11.1345C4.38561 10.8444 3.6548 10.6356 2.94718 10.6124C2.03076 10.5776 1.52035 11.3085 1.67116 12.2133C1.84516 13.2921 2.49477 14.0461 3.504 14.3709C5.76604 15.1017 7.80768 14.4057 9.66372 13.2689Z" fill="#FC94FF"></path>
<path d="M7.66462 12.5626C7.03821 13.189 6.48139 13.885 5.99418 14.6391C7.29341 14.4999 8.51144 13.9662 9.65986 13.2702C8.97545 13.0266 8.30263 12.841 7.66462 12.5626Z" fill="#EE2A7B"></path>
<path d="M19.0709 9.60234C19.1753 9.48634 19.2681 9.37034 19.3609 9.24273C18.4329 9.02233 17.4817 8.90633 16.4841 8.90633C16.2056 8.90633 15.9156 8.91793 15.6372 8.94113C15.3472 10.0199 15.0224 11.0988 14.338 12.1544C16.2404 11.6556 17.8413 10.9712 19.0709 9.60234Z" fill="#EE2A7B"></path>
<path d="M20.8344 9.70321C19.9064 10.7124 18.758 11.5244 17.4355 12.1741C16.7047 12.5337 15.8579 12.6613 15.0575 12.9049C14.8835 12.9629 14.6979 13.0441 14.5703 13.1717C13.6539 14.1229 12.3894 14.3549 11.2758 13.6821C10.9858 13.5081 10.8118 13.5429 10.545 13.7053C9.01376 14.6797 7.35493 15.3757 5.54529 15.4105C4.59407 17.1738 4.04886 19.1806 4.04886 21.3266C4.04886 28.194 9.61697 33.7505 16.4727 33.7505C23.3285 33.7505 28.8966 28.1824 28.8966 21.3266C28.9082 16.0137 25.5441 11.4664 20.8344 9.70321ZM16.4843 29.0176C12.2502 29.0176 8.80496 25.5839 8.80496 21.3383C8.80496 17.1042 12.2386 13.6589 16.4843 13.6589C20.73 13.6589 24.1637 17.0926 24.1637 21.3383C24.1521 25.5839 20.7184 29.0176 16.4843 29.0176Z" fill="#EE2A7B"></path>
<path d="M11.6154 10.6371C12.2418 10.1963 13.019 10.3239 13.8543 10.6023C13.9239 10.1035 13.9935 9.62792 14.0631 9.14071C12.6362 9.41911 11.3022 9.94112 10.0958 10.6719C10.5482 10.9387 11.0122 11.0547 11.6154 10.6371Z" fill="#EE2A7B"></path>
</svg></svg></g></svg>