<svg width="20" height="20" viewBox="0 0 20 20" fill="none" xmlns="http://www.w3.org/2000/svg">
<path d="M6.55922 3.82498C5.35089 4.12498 4.12589 5.34998 3.82589 6.55831L1.75089 14.8333C1.12589 17.3333 2.65922 18.875 5.16756 18.25L13.4426 16.1833C14.6426 15.8833 15.8759 14.65 16.1759 13.45L18.2509 5.16665C18.8759 2.66665 17.3426 1.12498 14.8342 1.74998L10.8426 2.74998" stroke="#D5D8DF" stroke-width="1.5" stroke-linecap="round" stroke-linejoin="round"/>
<path d="M10.0007 12.9166C11.6115 12.9166 12.9173 11.6108 12.9173 9.99998C12.9173 8.38915 11.6115 7.08331 10.0007 7.08331C8.38982 7.08331 7.08398 8.38915 7.08398 9.99998C7.08398 11.6108 8.38982 12.9166 10.0007 12.9166Z" stroke="#D5D8DF" stroke-width="1.5" stroke-linecap="round" stroke-linejoin="round"/>
</svg>
