<svg width="18" height="14" viewBox="0 0 18 14" fill="none" xmlns="http://www.w3.org/2000/svg">
<path d="M17.6901 6.7C17.5701 6.44 14.8301 0.250004 9.00008 0.250004C8.44184 0.249417 7.88521 0.309774 7.34008 0.430004C7.16052 0.485586 7.00838 0.606564 6.91377 0.768986C6.81917 0.931407 6.789 1.12343 6.82925 1.30704C6.86949 1.49064 6.97721 1.65244 7.13107 1.76041C7.28494 1.86837 7.47373 1.91462 7.66008 1.89C8.10082 1.79789 8.54981 1.75098 9.00008 1.75C13.1801 1.75 15.5801 5.85 16.1701 7C15.8104 7.7028 15.3887 8.37212 14.9101 9C14.8241 9.1107 14.7709 9.24327 14.7564 9.38267C14.742 9.52208 14.7669 9.66274 14.8283 9.78872C14.8897 9.91469 14.9852 10.0209 15.104 10.0954C15.2227 10.1699 15.3599 10.2096 15.5001 10.21C15.614 10.2096 15.7263 10.1833 15.8285 10.1331C15.9308 10.0828 16.0202 10.01 16.0901 9.92C16.7199 9.12016 17.2567 8.25123 17.6901 7.33C17.7339 7.23077 17.7565 7.12348 17.7565 7.015C17.7565 6.90653 17.7339 6.79924 17.6901 6.7ZM3.53008 0.470004C3.3879 0.337524 3.19986 0.265401 3.00556 0.268829C2.81125 0.272258 2.62587 0.350969 2.48846 0.488382C2.35104 0.625795 2.27233 0.811181 2.2689 1.00548C2.26547 1.19978 2.3376 1.38783 2.47008 1.53L3.39008 2.45C2.08736 3.64841 1.0398 5.09732 0.310078 6.71C0.270749 6.80338 0.250488 6.90368 0.250488 7.005C0.250488 7.10633 0.270749 7.20663 0.310078 7.3C0.430078 7.56 3.17008 13.75 9.00008 13.75C10.5594 13.7577 12.0864 13.3055 13.3901 12.45L14.4701 13.53C14.6107 13.6705 14.8013 13.7493 15.0001 13.7493C15.1988 13.7493 15.3895 13.6705 15.5301 13.53C15.6705 13.3894 15.7494 13.1988 15.7494 13C15.7494 12.8013 15.6705 12.6106 15.5301 12.47L3.53008 0.470004ZM7.36008 6.47L9.57008 8.69C9.26034 8.79268 8.92861 8.80971 8.60999 8.73929C8.29136 8.66888 7.9977 8.51364 7.76008 8.29C7.51808 8.05142 7.35124 7.7472 7.28015 7.41488C7.20907 7.08257 7.23686 6.73671 7.36008 6.42V6.47ZM9.00008 12.25C4.81008 12.25 2.42008 8.14 1.83008 7C2.48276 5.68631 3.37077 4.50342 4.45008 3.51L6.24008 5.3C5.85591 5.92092 5.69272 6.65339 5.77699 7.37866C5.86125 8.10393 6.18802 8.77947 6.70431 9.29577C7.22061 9.81206 7.89615 10.1388 8.62143 10.2231C9.3467 10.3074 10.0792 10.1442 10.7001 9.76L12.3101 11.37C11.3053 11.954 10.1622 12.2579 9.00008 12.25Z" fill="black"/>
</svg>
