<svg width="20" height="20" viewBox="0 0 20 20" fill="none" xmlns="http://www.w3.org/2000/svg">
<path d="M7.52493 11.6667C7.19993 11.1917 7.0166 10.6167 7.0166 10C7.0166 8.35 8.34993 7.01666 9.99993 7.01666C11.6499 7.01666 12.9833 8.35 12.9833 10C12.9833 11.65 11.6499 12.9833 9.99993 12.9833" stroke="#292D32" stroke-width="1.5" stroke-linecap="round" stroke-linejoin="round"/>
<path d="M14.6332 4.65C13.2249 3.65 11.6415 3.10834 9.99987 3.10834C7.0582 3.10834 4.31654 4.84167 2.4082 7.84167C1.6582 9.01667 1.6582 10.9917 2.4082 12.1667C4.31654 15.1667 7.0582 16.9 9.99987 16.9C12.9415 16.9 15.6832 15.1667 17.5915 12.1667C18.3415 10.9917 18.3415 9.01667 17.5915 7.84167" stroke="#292D32" stroke-width="1.5" stroke-linecap="round" stroke-linejoin="round"/>
</svg>
