<svg width="21" height="20" viewBox="0 0 21 20" fill="none" xmlns="http://www.w3.org/2000/svg">
<path d="M3.80859 15C3.80859 17.5 4.64193 18.3333 7.14193 18.3333H13.8086C16.3086 18.3333 17.1419 17.5 17.1419 15V8.33334H3.80859V11.5333" stroke="#EE2A7B" stroke-width="1.5" stroke-miterlimit="10" stroke-linecap="round" stroke-linejoin="round"/>
<path d="M18.4173 5.83332V6.66666C18.4173 7.58332 17.9757 8.33332 16.7507 8.33332H4.25065C2.97565 8.33332 2.58398 7.58332 2.58398 6.66666V5.83332C2.58398 4.91666 2.97565 4.16666 4.25065 4.16666H16.7507C17.9757 4.16666 18.4173 4.91666 18.4173 5.83332Z" stroke="#EE2A7B" stroke-width="1.5" stroke-miterlimit="10" stroke-linecap="round" stroke-linejoin="round"/>
<path d="M10.201 4.16668H5.60096C5.31763 3.85835 5.32596 3.38335 5.62596 3.08335L6.80929 1.90001C7.11763 1.59168 7.62596 1.59168 7.93429 1.90001L10.201 4.16668Z" stroke="#EE2A7B" stroke-width="1.5" stroke-miterlimit="10" stroke-linecap="round" stroke-linejoin="round"/>
<path d="M15.391 4.16668H10.791L13.0577 1.90001C13.366 1.59168 13.8743 1.59168 14.1827 1.90001L15.366 3.08335C15.666 3.38335 15.6743 3.85835 15.391 4.16668Z" stroke="#EE2A7B" stroke-width="1.5" stroke-miterlimit="10" stroke-linecap="round" stroke-linejoin="round"/>
<path d="M7.94922 8.33334V12.6167C7.94922 13.2833 8.68255 13.675 9.24089 13.3167L10.0242 12.8C10.3076 12.6167 10.6659 12.6167 10.9409 12.8L11.6826 13.3C12.2326 13.6667 12.9742 13.275 12.9742 12.6083V8.33334H7.94922Z" stroke="#EE2A7B" stroke-width="1.5" stroke-miterlimit="10" stroke-linecap="round" stroke-linejoin="round"/>
</svg>
