<svg width="20" height="20" viewBox="0 0 20 20" fill="none" xmlns="http://www.w3.org/2000/svg">
<path d="M12.5 10C12.5 8.61667 11.3833 7.5 10 7.5C8.61667 7.5 7.5 8.61667 7.5 10C7.5 11.3833 8.61667 12.5 10 12.5C10.3417 12.5 10.675 12.4333 10.975 12.3" stroke="#3D3D3D" stroke-width="1.5" stroke-miterlimit="10" stroke-linecap="round" stroke-linejoin="round"/>
<path d="M5.7334 17.15L6.64173 17.675C7.30006 18.0667 8.15007 17.8333 8.54173 17.175L8.6334 17.0167C9.3834 15.7083 10.6167 15.7083 11.3751 17.0167L11.4667 17.175C11.8584 17.8333 12.7084 18.0667 13.3667 17.675L14.8084 16.85C15.5667 16.4167 15.8251 15.4417 15.3917 14.6917C14.6334 13.3833 15.2501 12.3167 16.7584 12.3167C17.6251 12.3167 18.3417 11.6083 18.3417 10.7333V9.26666C18.3417 8.4 17.6334 7.68333 16.7584 7.68333C15.9167 7.68333 15.3501 7.35 15.1501 6.825C14.9917 6.41666 15.0584 5.88333 15.3917 5.30833C15.8251 4.55 15.5667 3.58333 14.8084 3.15L14.1334 2.76666" stroke="#3D3D3D" stroke-width="1.5" stroke-miterlimit="10" stroke-linecap="round" stroke-linejoin="round"/>
<path d="M11.367 2.98333C10.617 4.29166 9.38366 4.29166 8.62533 2.98333L8.53366 2.825C8.15033 2.16666 7.30033 1.93333 6.64199 2.325L5.20033 3.15C4.44199 3.58333 4.18366 4.55833 4.61699 5.31667C5.37533 6.61667 4.75866 7.68333 3.25033 7.68333C2.38366 7.68333 1.66699 8.39167 1.66699 9.26667V10.7333C1.66699 11.6 2.37533 12.3167 3.25033 12.3167C4.75866 12.3167 5.37533 13.3833 4.61699 14.6917" stroke="#3D3D3D" stroke-width="1.5" stroke-miterlimit="10" stroke-linecap="round" stroke-linejoin="round"/>
</svg>
