<svg width="21" height="20" viewBox="0 0 21 20" fill="none" xmlns="http://www.w3.org/2000/svg">
<path d="M18 4.98335C15.225 4.70835 12.4333 4.56668 9.65 4.56668C8 4.56668 6.35 4.65001 4.7 4.81668L3 4.98335" stroke="#121212" stroke-width="1.5" stroke-linecap="round" stroke-linejoin="round"/>
<path d="M7.58398 4.14166L7.76732 3.04999C7.90065 2.25832 8.00065 1.66666 9.40898 1.66666H11.5923C13.0007 1.66666 13.109 2.29166 13.234 3.05832L13.4173 4.14166" stroke="#121212" stroke-width="1.5" stroke-linecap="round" stroke-linejoin="round"/>
<path d="M13.1743 18.3333H7.82435C5.49935 18.3333 5.42435 17.3167 5.33268 16.0083L4.79102 7.61667" stroke="#121212" stroke-width="1.5" stroke-linecap="round" stroke-linejoin="round"/>
<path d="M16.2077 7.61667L15.666 16.0083" stroke="#121212" stroke-width="1.5" stroke-linecap="round" stroke-linejoin="round"/>
<path d="M9.10742 13.75H11.8824" stroke="white" stroke-width="1.5" stroke-linecap="round" stroke-linejoin="round"/>
<path d="M11.1836 10.4167H12.5836" stroke="white" stroke-width="1.5" stroke-linecap="round" stroke-linejoin="round"/>
<path d="M8.41602 10.4167H9.10768" stroke="white" stroke-width="1.5" stroke-linecap="round" stroke-linejoin="round"/>
</svg>
